<svg width="32" height="33" viewBox="0 0 32 33" fill="none" xmlns="http://www.w3.org/2000/svg">
<path d="M22.0002 8.02734H18.0002C17.2638 8.02734 16.6668 8.6243 16.6668 9.36068V13.3607H22.0002C22.1518 13.3573 22.2956 13.4279 22.3858 13.5499C22.4759 13.6719 22.5012 13.83 22.4535 13.974L21.4668 16.9073C21.3759 17.1765 21.1243 17.3585 20.8402 17.3607H16.6668V27.3607C16.6668 27.7288 16.3683 28.0273 16.0002 28.0273H12.6668C12.2986 28.0273 12.0002 27.7288 12.0002 27.3607V17.3607H10.0002C9.63198 17.3607 9.3335 17.0621 9.3335 16.694V14.0273C9.3335 13.6592 9.63198 13.3607 10.0002 13.3607H12.0002V9.36068C12.0002 6.41516 14.388 4.02734 17.3335 4.02734H22.0002C22.3683 4.02734 22.6668 4.32582 22.6668 4.69401V7.36068C22.6668 7.72886 22.3683 8.02734 22.0002 8.02734Z" fill="black"/>
</svg>
