<svg width="24" height="25" viewBox="0 0 24 25" fill="none" xmlns="http://www.w3.org/2000/svg">
<path fill-rule="evenodd" clip-rule="evenodd" d="M17.3333 0.0273438H6.66667C2.98477 0.0273438 0 3.01212 0 6.69401V17.3607C0 21.0425 2.98477 24.0273 6.66667 24.0273H17.3333C21.0152 24.0273 24 21.0425 24 17.3607V6.69401C24 3.01212 21.0152 0.0273438 17.3333 0.0273438ZM21.6667 17.3607C21.6593 19.7508 19.7235 21.6867 17.3333 21.694H6.66667C4.27647 21.6867 2.34065 19.7508 2.33333 17.3607V6.69401C2.34065 4.30381 4.27647 2.368 6.66667 2.36068H17.3333C19.7235 2.368 21.6593 4.30381 21.6667 6.69401V17.3607ZM18.3333 7.02734C19.0697 7.02734 19.6667 6.43038 19.6667 5.69401C19.6667 4.95764 19.0697 4.36068 18.3333 4.36068C17.5969 4.36068 17 4.95764 17 5.69401C17 6.43038 17.5969 7.02734 18.3333 7.02734ZM12 6.02734C8.68629 6.02734 6 8.71364 6 12.0273C6 15.3411 8.68629 18.0273 12 18.0273C15.3137 18.0273 18 15.3411 18 12.0273C18.0036 10.4349 17.3725 8.90677 16.2465 7.78078C15.1205 6.6548 13.5924 6.0238 12 6.02734ZM8.33333 12.0273C8.33333 14.0524 9.97493 15.694 12 15.694C14.0251 15.694 15.6667 14.0524 15.6667 12.0273C15.6667 10.0023 14.0251 8.36068 12 8.36068C9.97493 8.36068 8.33333 10.0023 8.33333 12.0273Z" fill="black"/>
</svg>
