<svg width="24" height="25" viewBox="0 0 24 25" fill="none" xmlns="http://www.w3.org/2000/svg">
<path fill-rule="evenodd" clip-rule="evenodd" d="M2.66667 0.0273438H21.3333C22.8061 0.0273438 24 1.22125 24 2.69401V21.3607C24 22.8335 22.8061 24.0273 21.3333 24.0273H2.66667C1.19391 24.0273 0 22.8335 0 21.3607V2.69401C0 1.22125 1.19391 0.0273438 2.66667 0.0273438ZM6.66667 20.0273C7.03485 20.0273 7.33333 19.7288 7.33333 19.3607V10.0273C7.33333 9.65921 7.03485 9.36068 6.66667 9.36068H4.66667C4.29848 9.36068 4 9.65921 4 10.0273V19.3607C4 19.7288 4.29848 20.0273 4.66667 20.0273H6.66667ZM5.66667 8.02734C4.56209 8.02734 3.66667 7.13192 3.66667 6.02734C3.66667 4.92277 4.56209 4.02734 5.66667 4.02734C6.77124 4.02734 7.66667 4.92277 7.66667 6.02734C7.66667 7.13192 6.77124 8.02734 5.66667 8.02734ZM19.3333 20.0273C19.7015 20.0273 20 19.7288 20 19.3607V13.2273C20.0433 11.1084 18.4768 9.30004 16.3733 9.04068C14.9027 8.90634 13.4777 9.59321 12.6667 10.8273V10.0273C12.6667 9.65921 12.3681 9.36068 12 9.36068H10C9.63187 9.36068 9.33333 9.65921 9.33333 10.0273V19.3607C9.33333 19.7288 9.63187 20.0273 10 20.0273H12C12.3681 20.0273 12.6667 19.7288 12.6667 19.3607V14.3607C12.6667 13.2561 13.5621 12.3607 14.6667 12.3607C15.7712 12.3607 16.6667 13.2561 16.6667 14.3607V19.3607C16.6667 19.7288 16.9652 20.0273 17.3333 20.0273H19.3333Z" fill="black"/>
</svg>
