<svg width="58" height="42" viewBox="0 0 58 42" fill="none" xmlns="http://www.w3.org/2000/svg">
<path fill-rule="evenodd" clip-rule="evenodd" d="M50.2042 8.74609H57.5437L36.9642 41.2702L32.0714 32.7794L26.4587 41.2702L23.2925 36.9527L32.0714 23.137L36.8203 30.4769L50.2042 8.74609Z" fill="#282938"/>
<path fill-rule="evenodd" clip-rule="evenodd" d="M35.2132 21.424L44.1057 8.75H37.3737L34.5897 13.5289C32.9107 16.4603 34.1666 18.9721 35.2132 21.424Z" fill="#282938"/>
<path fill-rule="evenodd" clip-rule="evenodd" d="M28.8374 21.0591L31.106 17.622C28.5304 7.2438 22.6947 0.357683 13.7129 0.741858C3.29291 1.43746 -2.07151 12.4793 1.60305 20.3491L12.3689 40.0337C13.2735 41.5362 14.986 41.6093 15.8903 40.1683L20.613 31.0987L18.7872 27.5432L14.2878 36.8776L4.96649 19.2917C1.77344 13.1708 6.8561 4.91801 13.7129 4.38993C17.7307 3.84877 23.0419 7.72721 25.2483 13.6053L28.8374 21.0588V21.0591Z" fill="#282938"/>
<path d="M14.7602 20.0926C16.8601 20.0926 18.5624 18.3904 18.5624 16.2905C18.5624 14.1906 16.8601 12.4883 14.7602 12.4883C12.6603 12.4883 10.958 14.1906 10.958 16.2905C10.958 18.3904 12.6603 20.0926 14.7602 20.0926Z" fill="#282938"/>
</svg>
