<svg xmlns="http://www.w3.org/2000/svg" viewBox="0 0 78.22 78.22"><defs><style>.cls-1{fill:#fff;}.cls-2{fill:#231f20;}</style></defs><g id="Layer_2" data-name="Layer 2"><g id="Layer_1-2" data-name="Layer 1"><rect class="cls-1" width="78.22" height="78.22" rx="17.43"/><path class="cls-2" d="M64.85,70.73a3.35,3.35,0,0,1-4.34-.5l-.28-.29-4.77-5.09A27,27,0,0,0,53,62.4L50.49,60l-1.25-1.19L47.91,57.8l-2.65-2.11a27.07,27.07,0,0,0-2.73-1.88c-.94-.56-1.82-1.27-2.8-1.73a23.85,23.85,0,0,0-11.6-3.34,6.14,6.14,0,0,0-1.42.1c-.46.08-.93.11-1.39.19a16.58,16.58,0,0,0-2.65.91A11.7,11.7,0,0,0,20.2,51.3a11.31,11.31,0,0,0-1.08.86c-.16.16-.37.3-.5.45l-.35.35-.45.46a3.6,3.6,0,0,1-5.49-4.63l.11-.16v0c2.47-3.44,4.91-6.86,7.42-10.23S25,31.45,27.59,28.06l2-2.56.48-.63a3.18,3.18,0,0,0,.32-.44,3.64,3.64,0,0,0,.42-.94,3.71,3.71,0,0,0,0-2.14,20,20,0,0,0-1.32-2.62c-2-3.79-4-7.62-5.92-11.51,2.85,3.26,5.6,6.59,8.28,9.94l1,1.27A8.79,8.79,0,0,1,33.88,20a7.29,7.29,0,0,1,.21,6.25,8.41,8.41,0,0,1-.49.95l-.4.71-1.6,2.79c-2,3.54-4.06,7-6.12,10.44l.17,0a11.5,11.5,0,0,1,2.16-.23,20.25,20.25,0,0,1,4.28.21,23.24,23.24,0,0,1,4.08.86c1.28.47,2.65.79,3.85,1.36l3.58,1.79c1.18.61,2.19,1.39,3.29,2.1.61.41,1.23.81,1.84,1.23C47.32,45.72,46,43,44.64,40.22c-1.58-3.34-3.18-6.68-4.65-10.08C42.34,33,44.56,36,46.8,38.91s4.39,5.91,6.48,8.93,4.29,6,6.32,9.07l5.89,8.75.27.39A3.37,3.37,0,0,1,64.85,70.73Z"/></g></g></svg>