<svg xmlns="http://www.w3.org/2000/svg" viewBox="0 0 48.95 48.95"><defs><style>.cls-1{fill:#231f20;}.cls-2{fill:#fff;}</style></defs><g id="Layer_2" data-name="Layer 2"><g id="Layer_1-2" data-name="Layer 1"><rect class="cls-1" width="48.95" height="48.95" rx="9.06"/><path class="cls-2" d="M14.74,4.52c1.78,2,3.49,4.12,5.17,6.22l.63.8a5.34,5.34,0,0,1,.66,1,4.6,4.6,0,0,1,.48,2.59,4.37,4.37,0,0,1-.35,1.32A5.58,5.58,0,0,1,21,17l-.25.44-1,1.75c-1.32,2.35-2.7,4.64-4.08,7s-2.77,4.6-4.19,6.88L7.78,30.43c.22-.29.36-.43.53-.63s.32-.33.49-.5a11,11,0,0,1,1-.91,12.61,12.61,0,0,1,2.31-1.45,14.75,14.75,0,0,1,2.57-1c.45-.1.9-.16,1.35-.24a6.88,6.88,0,0,1,1.35-.14,12.46,12.46,0,0,1,2.67.13,14.18,14.18,0,0,1,2.56.54,23.7,23.7,0,0,1,2.41.86l2.23,1.11c.74.38,1.37.87,2.06,1.31a16.68,16.68,0,0,1,2,1.41l1.82,1.53.91.78.82.83,1.63,1.68a19.61,19.61,0,0,1,1.57,1.73L41,41.09l-3.46,2.44-3.3-6.06c-1.11-2-2.13-4.08-3.2-6.12s-2.06-4.12-3.1-6.18S26,21,25,18.86c1.46,1.8,2.85,3.65,4.25,5.49S32,28.05,33.34,30s2.68,3.74,3.95,5.66l3.87,5.72A2.11,2.11,0,0,1,37.86,44l-.16-.18-3-3.19a17.09,17.09,0,0,0-1.54-1.53l-1.58-1.48-.78-.74L30,36.17l-1.65-1.32a17.5,17.5,0,0,0-1.72-1.18c-.58-.35-1.14-.79-1.74-1.08A15,15,0,0,0,17.6,30.5a3.69,3.69,0,0,0-.88.06c-.29.05-.59.07-.88.12a10.73,10.73,0,0,0-1.65.57,7,7,0,0,0-1.54.85,6.34,6.34,0,0,0-.69.54c-.1.1-.23.19-.31.28l-.22.22-.28.29a2.25,2.25,0,0,1-3.43-2.9c1.55-2.19,3.11-4.37,4.72-6.52s3.17-4.33,4.83-6.45L18.49,16l.31-.4.19-.27a2.43,2.43,0,0,0,.27-.59,2.27,2.27,0,0,0,0-1.34,12.42,12.42,0,0,0-.82-1.64C17.16,9.35,15.92,7,14.74,4.52Z"/></g></g></svg>