<svg width="24" height="21" viewBox="0 0 24 21" fill="none" xmlns="http://www.w3.org/2000/svg">
<path d="M23.9639 2.98388C23.3447 3.80991 22.5962 4.53045 21.7472 5.11769C21.7472 5.33347 21.7472 5.54924 21.7472 5.77701C21.754 9.69548 20.1888 13.4528 17.4026 16.2067C14.6162 18.9605 10.8418 20.4805 6.92557 20.4259C4.66149 20.4335 2.42639 19.9165 0.395392 18.9155C0.285872 18.8676 0.215245 18.7593 0.215659 18.6397V18.5079C0.215659 18.3357 0.355139 18.1963 0.527192 18.1963C2.75273 18.1228 4.89886 17.3512 6.66195 15.9905C4.64754 15.9499 2.83509 14.7565 2.00097 12.9216C1.95885 12.8215 1.97195 12.7064 2.03559 12.6183C2.09922 12.5301 2.20417 12.4816 2.3125 12.4901C2.92473 12.5516 3.54307 12.4947 4.13377 12.3223C1.91002 11.8607 0.239112 10.0145 -2.11499e-05 7.75495C-0.00851448 7.64655 0.0400587 7.54161 0.128165 7.47788C0.216259 7.41428 0.331152 7.40108 0.431339 7.44335C1.02809 7.70668 1.67229 7.84535 2.32449 7.85081C0.375952 6.57196 -0.465688 4.13941 0.275565 1.92897C0.352085 1.71419 0.535912 1.55551 0.759499 1.51127C0.983072 1.46701 1.21345 1.54372 1.36593 1.7132C3.99535 4.51168 7.60822 6.17929 11.4427 6.3644C11.3446 5.97248 11.2963 5.56969 11.299 5.16564C11.3348 3.04697 12.6458 1.15963 14.618 0.387173C16.5902 -0.385267 18.8334 0.110053 20.2975 1.64127C21.2954 1.45115 22.2602 1.11595 23.1611 0.646293C23.2271 0.605093 23.3108 0.605093 23.3768 0.646293C23.418 0.71232 23.418 0.79604 23.3768 0.862066C22.9404 1.86137 22.2032 2.69951 21.268 3.2596C22.087 3.16463 22.8915 2.97144 23.6644 2.6842C23.7295 2.63991 23.815 2.63991 23.88 2.6842C23.9346 2.70913 23.9754 2.75683 23.9915 2.81457C24.0076 2.87232 23.9975 2.93425 23.9639 2.98388Z" fill="black"/>
</svg>
